<svg width="458" height="144" viewBox="0 0 458 144" fill="none" xmlns="http://www.w3.org/2000/svg">
<path d="M72 0.600006H386C425.6 0.600006 457.6 32.7 457.6 72.2C457.6 111.8 425.5 143.8 386 143.8H72C32.4 143.8 0.399994 111.7 0.399994 72.2C0.399994 32.7 32.5 0.600006 72 0.600006Z" fill="white"/>
<path d="M72 2H386C424.8 2 456.2 33.4 456.2 72.2C456.2 111 424.8 142.4 386 142.4H72C33.2 142.4 1.8 111 1.8 72.2C1.8 33.4 33.2 2 72 2Z" stroke="#010202" stroke-opacity="0.25" stroke-width="2.7543"/>
<path d="M166.7 38.8V55.1H171.6C174.2 55.1 176.2 54.3 177.8 52.8C179.4 51.3 180.1 49.3 180.1 46.9C180.1 44.5 179.3 42.5 177.8 41C176.3 39.5 174.2 38.8 171.6 38.8H166.7ZM171.6 41.2C173.4 41.2 174.9 41.7 175.9 42.8C177 43.8 177.5 45.2 177.5 47C177.5 48.7 177 50.1 175.9 51.2C174.8 52.3 173.4 52.8 171.6 52.8H169.2V41.2H171.6Z" fill="#010202"/>
<path d="M188.4 42.7C186.7 42.7 185.2 43.3 184 44.5C182.8 45.7 182.2 47.2 182.2 49C182.2 50.8 182.8 52.3 184 53.5C185.2 54.7 186.6 55.3 188.4 55.4C190.1 55.4 191.6 54.8 192.8 53.6C194 52.4 194.6 50.9 194.6 49.1C194.6 47.3 194 45.8 192.8 44.6C191.5 43.3 190.1 42.7 188.4 42.7ZM188.4 45.1C189.4 45.1 190.3 45.5 191 46.3C191.7 47 192 48 192 49.1C192 50.2 191.6 51.2 191 51.9C190.3 52.6 189.4 53 188.4 53C187.4 53 186.5 52.6 185.8 51.9C185.1 51.1 184.8 50.2 184.8 49.1C184.8 48 185.1 47 185.8 46.3C186.5 45.5 187.4 45.1 188.4 45.1Z" fill="#010202"/>
<path d="M209.3 50.8L205.7 42.7H204.8L201.3 50.9L198.2 43H195.5L200.7 55.4H201.6L205.3 47.3L209 55.4H209.9L215 43H212.3L209.3 50.8Z" fill="#010202"/>
<path d="M223 42.7C221.6 42.7 220.4 43.2 219.5 44.2V43H217.2V55.1H219.7V47.9C219.7 46.2 220.8 45.1 222.4 45.1C223.9 45.1 224.9 46.2 224.9 47.9V55.1H227.4V47.5C227.4 44.6 225.7 42.7 223 42.7Z" fill="#010202"/>
<path d="M230.8 36.6V55.1H233.3V36.6H230.8Z" fill="#010202"/>
<path d="M242.3 42.7C240.6 42.7 239.1 43.3 237.9 44.5C236.7 45.7 236.1 47.2 236.1 49C236.1 50.8 236.7 52.3 237.9 53.5C239.1 54.7 240.5 55.3 242.3 55.4C244 55.4 245.5 54.8 246.7 53.6C247.9 52.4 248.5 50.9 248.5 49.1C248.5 47.3 247.9 45.8 246.7 44.6C245.5 43.3 244 42.7 242.3 42.7ZM242.4 45.1C243.4 45.1 244.3 45.5 245 46.3C245.7 47 246 48 246 49.1C246 50.2 245.6 51.2 245 51.9C244.3 52.6 243.4 53 242.4 53C241.4 53 240.5 52.6 239.8 51.9C239.1 51.1 238.8 50.2 238.8 49.1C238.8 48 239.1 47 239.8 46.3C240.4 45.5 241.3 45.1 242.4 45.1Z" fill="#010202"/>
<path d="M255.9 42.7C253.8 42.7 252.2 43.6 251 45.3L252.4 46.8C253.4 45.6 254.5 45 255.6 45C257.2 45 258.1 45.9 258.1 47.6V48.4H254.8C252.2 48.4 250.5 49.8 250.5 51.9C250.5 54 252.1 55.4 254.6 55.4C256.2 55.4 257.4 54.9 258.3 53.8V55.2H260.6V47.9C260.6 44.5 258.7 42.7 255.9 42.7ZM255.1 53.4C253.9 53.4 253.1 52.8 253.1 51.8C253.1 50.8 253.8 50.3 255.2 50.3H258.2V50.5C258.1 52.2 256.8 53.4 255.1 53.4Z" fill="#010202"/>
<path d="M272.9 44.5C272 43.3 270.7 42.7 269 42.7C267.4 42.7 266 43.3 264.9 44.5C263.8 45.7 263.3 47.2 263.3 49C263.3 50.8 263.8 52.3 264.9 53.5C266 54.7 267.3 55.3 269 55.3C270.8 55.3 272.2 54.6 273.1 53.3V55H275.4V36.5H272.9V44.5ZM269.5 53C268.5 53 267.6 52.6 266.9 51.9C266.2 51.2 265.9 50.2 265.9 49C265.9 47.8 266.2 46.9 266.9 46.2C267.6 45.5 268.4 45.1 269.5 45.1C270.4 45.1 271.3 45.4 272 46.1C272.7 46.8 273 47.8 273 49C273 51.7 271.4 53 269.5 53Z" fill="#010202"/>
<path d="M291.1 42.7C289.4 42.7 287.9 43.3 286.7 44.5C285.5 45.7 284.9 47.2 284.9 49C284.9 50.8 285.5 52.3 286.7 53.5C287.9 54.7 289.3 55.3 291.1 55.4C292.8 55.4 294.3 54.8 295.5 53.6C296.7 52.4 297.3 50.9 297.3 49.1C297.3 47.3 296.7 45.8 295.5 44.6C294.2 43.3 292.8 42.7 291.1 42.7ZM291.1 45.1C292.1 45.1 293 45.5 293.7 46.3C294.4 47 294.7 48 294.7 49.1C294.7 50.2 294.3 51.2 293.7 51.9C293 52.6 292.1 53 291.1 53C290.1 53 289.2 52.6 288.5 51.9C287.8 51.1 287.5 50.2 287.5 49.1C287.5 48 287.8 47 288.5 46.3C289.2 45.5 290.1 45.1 291.1 45.1Z" fill="#010202"/>
<path d="M305.9 42.7C304.5 42.7 303.3 43.2 302.4 44.2V43H300.1V55.1H302.6V47.9C302.6 46.2 303.7 45.1 305.3 45.1C306.8 45.1 307.8 46.2 307.8 47.9V55.1H310.3V47.5C310.3 44.6 308.7 42.7 305.9 42.7Z" fill="#010202"/>
<path d="M325.8 53C324.3 53 323.5 52.5 323.5 50.9V45.2H327V43H323.5V39.8H321V43H319.1V45.2H321V51.1C321 53.9 322.6 55.3 325.3 55.3C325.9 55.3 326.6 55.2 327.4 55V52.8C326.6 53 326.1 53 325.8 53Z" fill="#010202"/>
<path d="M335.7 42.7C334.3 42.7 333.2 43.2 332.3 44.2V36.6H329.8V55.1H332.3V47.9C332.3 46.2 333.4 45.1 335 45.1C336.5 45.1 337.5 46.2 337.5 47.9V55.1H340V47.5C340 44.7 338.4 42.7 335.7 42.7Z" fill="#010202"/>
<path d="M354.2 48.3C354.2 46.7 353.7 45.4 352.7 44.3C351.7 43.2 350.4 42.7 348.9 42.7C347.2 42.7 345.8 43.3 344.6 44.6C343.4 45.8 342.9 47.3 342.9 49.1C342.9 50.9 343.5 52.4 344.7 53.6C345.9 54.8 347.4 55.4 349.2 55.4C351 55.4 352.5 54.8 353.8 53.4L352.6 51.6C351.6 52.6 350.4 53 349.2 53C347.2 53 345.7 51.8 345.4 49.8H354.1C354.1 49.3 354.2 48.8 354.2 48.3ZM348.7 44.9C350.4 44.9 351.7 46.1 351.7 47.9H345.4C345.7 46.1 347 44.9 348.7 44.9Z" fill="#010202"/>
<path d="M193 98.6L180 67.5H178.4L165.5 98.6H170.5L172.6 93.5H185.8L187.9 98.6H193ZM174.3 89.3L179.2 76.6L184 89.3H174.3Z" fill="#010202"/>
<path d="M208.4 75.3C205.2 75.3 202.4 76.7 200.8 79.1V75.9H196.4V107H201.1V95.9C202.8 98.1 205.3 99.1 208.4 99.1C211.5 99.1 214.1 98 216.1 95.7C218.1 93.4 219.1 90.6 219.1 87.2C219.1 83.8 218.1 81 216.1 78.7C214.1 76.4 211.5 75.3 208.4 75.3ZM207.6 94.6C205.8 94.6 204.2 94 202.9 92.7C201.6 91.4 201 89.6 201 87.1C201 82.2 204 79.7 207.6 79.7C209.5 79.7 211.1 80.4 212.4 81.8C213.7 83.2 214.3 85 214.3 87.2C214.3 89.4 213.7 91.1 212.4 92.5C211.1 93.9 209.5 94.6 207.6 94.6Z" fill="#010202"/>
<path d="M235.5 75.3C232.3 75.3 229.5 76.7 227.9 79.1V75.9H223.5V107H228.2V95.9C229.9 98.1 232.4 99.1 235.5 99.1C238.6 99.1 241.2 98 243.2 95.7C245.2 93.4 246.2 90.6 246.2 87.2C246.2 83.8 245.2 81 243.2 78.7C241.2 76.4 238.6 75.3 235.5 75.3ZM234.8 94.6C233 94.6 231.4 94 230.1 92.7C228.8 91.4 228.2 89.6 228.2 87.1C228.2 82.2 231.2 79.7 234.8 79.7C236.7 79.7 238.3 80.4 239.6 81.8C240.9 83.2 241.5 85 241.5 87.2C241.5 89.4 240.9 91.1 239.6 92.5C238.2 93.9 236.7 94.6 234.8 94.6Z" fill="#010202"/>
<path d="M271.5 67.5C268.9 67.5 266.7 68.3 264.9 69.8C263.1 71.3 262.2 73.3 262.2 75.8C262.2 79.7 264.7 82.2 269 84.3L272.2 85.9C275.3 87.4 276.5 88.3 276.5 90.5C276.5 93.1 274.5 94.8 271.4 94.8C268.4 94.8 265.9 93.2 263.7 89.9L260.4 92.5C262.7 96.6 266.7 99.1 271.5 99.1C274.3 99.1 276.7 98.3 278.5 96.7C280.4 95.1 281.3 92.9 281.3 90.3C281.3 86.3 279 83.9 274.3 81.6L271 80C268 78.5 266.9 77.7 266.9 75.6C266.9 73.2 268.9 71.9 271.3 71.9C273.8 71.9 275.9 73.2 277.5 75.6L280.8 73C279.1 69.7 275.6 67.5 271.5 67.5Z" fill="#010202"/>
<path d="M296.1 94.7C293.3 94.7 291.8 93.7 291.8 90.8V80H298.3V75.8H291.8V69.8H287.1V75.8H283.5V80H287.1V91.1C287.1 96.4 290.1 99 295.1 99C296.2 99 297.5 98.8 299 98.5V94.4C297.7 94.6 296.8 94.7 296.1 94.7Z" fill="#010202"/>
<path d="M312.5 75.3C309.3 75.3 306.5 76.5 304.3 78.7C302.1 81 301 83.8 301 87.1C301 90.4 302.1 93.3 304.3 95.5C306.5 97.8 309.2 98.9 312.5 99C315.7 99 318.4 97.8 320.7 95.6C323 93.3 324.1 90.5 324.1 87.1C324.1 83.8 322.9 80.9 320.7 78.7C318.5 76.5 315.7 75.3 312.5 75.3ZM312.6 79.8C314.5 79.8 316.1 80.5 317.4 82C318.7 83.4 319.4 85.1 319.4 87.3C319.4 89.4 318.7 91.1 317.4 92.6C316.1 94 314.5 94.7 312.6 94.7C310.6 94.7 309 94 307.8 92.6C306.5 91.2 305.9 89.4 305.9 87.3C305.9 85.2 306.5 83.4 307.8 82C309 80.5 310.6 79.8 312.6 79.8Z" fill="#010202"/>
<path d="M339.3 75.6C336.6 75.6 334.5 76.7 332.9 78.8V75.8H328.5V98.5H333.2V86.4C333.2 82.4 335.9 80.1 339.6 80.1H341V75.8C340.6 75.7 340 75.6 339.3 75.6Z" fill="#010202"/>
<path d="M364 85.7C364 82.7 363 80.2 361.1 78.2C359.2 76.2 356.8 75.2 353.9 75.2C350.7 75.2 348 76.4 345.9 78.7C343.7 81 342.7 83.8 342.7 87.1C342.7 90.5 343.8 93.3 346 95.6C348.2 97.9 351 99 354.4 99C357.7 99 360.6 97.8 363.1 95.3L360.9 92C358.9 93.8 356.8 94.7 354.5 94.7C350.7 94.7 348 92.5 347.4 88.7H363.7C363.8 87.7 364 86.7 364 85.7ZM353.7 79.4C356.9 79.4 359.3 81.6 359.3 85H347.4C348.1 81.6 350.6 79.4 353.7 79.4Z" fill="#010202"/>
<path d="M143.8 70.2C143.7 61.5 151.4 57.3 151.7 57.1C147.4 51.2 140.6 50.4 138.3 50.3C132.7 49.7 127.2 53.5 124.3 53.5C121.4 53.5 116.9 50.4 112.2 50.5C106.1 50.6 100.3 53.9 97.2 59.1C90.7 69.6 95.5 85.1 101.8 93.6C104.9 97.8 108.5 102.4 113.3 102.3C118 102.1 119.7 99.5 125.3 99.5C130.9 99.5 132.5 102.3 137.4 102.2C142.4 102.1 145.6 98 148.6 93.8C152.2 89 153.6 84.3 153.7 84.1C153.5 84 143.9 80.6 143.8 70.2ZM134.6 44.8C137.1 41.9 138.8 37.9 138.3 33.8C134.7 33.9 130.1 36.1 127.5 39C125.2 41.5 123.1 45.7 123.7 49.6C127.8 49.9 132 47.6 134.6 44.8Z" fill="#010202"/>
</svg>
