<svg width="458" height="144" viewBox="0 0 458 144" fill="none" xmlns="http://www.w3.org/2000/svg">
<path d="M72 0.200012H386C425.6 0.200012 457.6 32.3 457.6 71.8C457.6 111.4 425.5 143.4 386 143.4H72C32.4 143.4 0.399994 111.3 0.399994 71.8C0.399994 32.2 32.5 0.200012 72 0.200012Z" fill="white"/>
<path d="M72 1.5H386C424.8 1.5 456.2 32.9 456.2 71.7C456.2 110.5 424.8 141.9 386 141.9H72C33.2 141.9 1.8 110.5 1.8 71.7C1.8 33 33.2 1.5 72 1.5Z" stroke="#010202" stroke-opacity="0.25" stroke-width="2.7543"/>
<path d="M176.834 79.72L177.17 76.264L174.29 78.376L172.61 75.4L176.45 73.912L172.61 72.424L174.29 69.448L177.17 71.56L176.834 68.104H180.242L179.954 71.56L182.834 69.448L184.466 72.424L180.674 73.912L184.466 75.4L182.834 78.376L179.954 76.264L180.242 79.72H176.834ZM194.743 101.8L206.743 75.112L207.943 76.888H191.575V69.784H214.615V74.296L203.239 101.8H194.743ZM225.789 101.8V77.272L219.597 80.776V73.864L226.701 69.784H233.565V101.8H225.789ZM252.128 102.184C250.4 102.184 248.736 101.944 247.136 101.464C245.568 100.952 244.112 100.36 242.768 99.688V93.064C244.176 93.928 245.616 94.696 247.088 95.368C248.56 96.008 250.128 96.328 251.792 96.328C253.616 96.328 255.056 95.992 256.112 95.32C257.168 94.648 257.696 93.672 257.696 92.392C257.696 91.112 257.248 90.088 256.352 89.32C255.456 88.552 253.888 88.168 251.648 88.168H246.896V82.312H251.744C253.28 82.312 254.416 81.992 255.152 81.352C255.888 80.68 256.256 79.88 256.256 78.952C256.256 78.056 256.016 77.352 255.536 76.84C255.056 76.328 254.416 75.96 253.616 75.736C252.816 75.48 251.936 75.352 250.976 75.352C249.888 75.352 248.768 75.496 247.616 75.784C246.464 76.04 245.056 76.568 243.392 77.368V71.416C244.576 70.808 245.872 70.312 247.28 69.928C248.72 69.544 250.208 69.352 251.744 69.352C253.216 69.352 254.624 69.528 255.968 69.88C257.344 70.2 258.56 70.712 259.616 71.416C260.672 72.12 261.52 73.032 262.16 74.152C262.8 75.24 263.12 76.552 263.12 78.088C263.12 78.984 262.944 79.8 262.592 80.536C262.272 81.272 261.856 81.928 261.344 82.504C260.864 83.048 260.352 83.48 259.808 83.8C259.264 84.12 258.784 84.328 258.368 84.424C259.008 84.616 259.68 84.952 260.384 85.432C261.12 85.88 261.792 86.456 262.4 87.16C263.04 87.864 263.552 88.696 263.936 89.656C264.32 90.584 264.512 91.624 264.512 92.776C264.512 94.472 264.176 95.912 263.504 97.096C262.832 98.28 261.904 99.256 260.72 100.024C259.568 100.76 258.256 101.304 256.784 101.656C255.312 102.008 253.76 102.184 252.128 102.184ZM276.115 79.72L276.451 76.264L273.571 78.376L271.891 75.4L275.731 73.912L271.891 72.424L273.571 69.448L276.451 71.56L276.115 68.104H279.523L279.235 71.56L282.115 69.448L283.747 72.424L279.955 73.912L283.747 75.4L282.115 78.376L279.235 76.264L279.523 79.72H276.115ZM300.456 102.184C298.728 102.184 297.064 101.944 295.464 101.464C293.896 100.952 292.44 100.36 291.096 99.688V93.064C292.504 93.928 293.944 94.696 295.416 95.368C296.888 96.008 298.456 96.328 300.12 96.328C301.944 96.328 303.384 95.992 304.44 95.32C305.496 94.648 306.024 93.672 306.024 92.392C306.024 91.112 305.576 90.088 304.68 89.32C303.784 88.552 302.216 88.168 299.976 88.168H295.224V82.312H300.072C301.608 82.312 302.744 81.992 303.48 81.352C304.216 80.68 304.584 79.88 304.584 78.952C304.584 78.056 304.344 77.352 303.864 76.84C303.384 76.328 302.744 75.96 301.944 75.736C301.144 75.48 300.264 75.352 299.304 75.352C298.216 75.352 297.096 75.496 295.944 75.784C294.792 76.04 293.384 76.568 291.72 77.368V71.416C292.904 70.808 294.2 70.312 295.608 69.928C297.048 69.544 298.536 69.352 300.072 69.352C301.544 69.352 302.952 69.528 304.296 69.88C305.672 70.2 306.888 70.712 307.944 71.416C309 72.12 309.848 73.032 310.488 74.152C311.128 75.24 311.448 76.552 311.448 78.088C311.448 78.984 311.272 79.8 310.92 80.536C310.6 81.272 310.184 81.928 309.672 82.504C309.192 83.048 308.68 83.48 308.136 83.8C307.592 84.12 307.112 84.328 306.696 84.424C307.336 84.616 308.008 84.952 308.712 85.432C309.448 85.88 310.12 86.456 310.728 87.16C311.368 87.864 311.88 88.696 312.264 89.656C312.648 90.584 312.84 91.624 312.84 92.776C312.84 94.472 312.504 95.912 311.832 97.096C311.16 98.28 310.232 99.256 309.048 100.024C307.896 100.76 306.584 101.304 305.112 101.656C303.64 102.008 302.088 102.184 300.456 102.184ZM329.003 102.184C327.275 102.184 325.611 101.944 324.011 101.464C322.443 100.952 320.987 100.36 319.643 99.688V93.064C321.051 93.928 322.491 94.696 323.963 95.368C325.435 96.008 327.003 96.328 328.667 96.328C330.491 96.328 331.931 95.992 332.987 95.32C334.043 94.648 334.571 93.672 334.571 92.392C334.571 91.112 334.123 90.088 333.227 89.32C332.331 88.552 330.763 88.168 328.523 88.168H323.771V82.312H328.619C330.155 82.312 331.291 81.992 332.027 81.352C332.763 80.68 333.131 79.88 333.131 78.952C333.131 78.056 332.891 77.352 332.411 76.84C331.931 76.328 331.291 75.96 330.491 75.736C329.691 75.48 328.811 75.352 327.851 75.352C326.763 75.352 325.643 75.496 324.491 75.784C323.339 76.04 321.931 76.568 320.267 77.368V71.416C321.451 70.808 322.747 70.312 324.155 69.928C325.595 69.544 327.083 69.352 328.619 69.352C330.091 69.352 331.499 69.528 332.843 69.88C334.219 70.2 335.435 70.712 336.491 71.416C337.547 72.12 338.395 73.032 339.035 74.152C339.675 75.24 339.995 76.552 339.995 78.088C339.995 78.984 339.819 79.8 339.467 80.536C339.147 81.272 338.731 81.928 338.219 82.504C337.739 83.048 337.227 83.48 336.683 83.8C336.139 84.12 335.659 84.328 335.243 84.424C335.883 84.616 336.555 84.952 337.259 85.432C337.995 85.88 338.667 86.456 339.275 87.16C339.915 87.864 340.427 88.696 340.811 89.656C341.195 90.584 341.387 91.624 341.387 92.776C341.387 94.472 341.051 95.912 340.379 97.096C339.707 98.28 338.779 99.256 337.595 100.024C336.443 100.76 335.131 101.304 333.659 101.656C332.187 102.008 330.635 102.184 329.003 102.184ZM350.926 100.888L351.838 95.944H348.238V92.008H352.462L353.566 85.768H349.534V81.832H354.19L355.102 76.744H359.23L358.318 81.832H363.79L364.702 76.744H368.782L367.87 81.832H370.942V85.768H367.246L366.142 92.008H369.646V95.944H365.47L364.606 100.888H360.526L361.39 95.944H355.87L355.054 100.888H350.926ZM356.542 92.008H362.11L363.118 85.768H357.646L356.542 92.008Z" fill="black"/>
<path d="M170.378 38.808H176.306C177.506 38.808 178.554 38.944 179.45 39.216C180.362 39.488 181.146 39.856 181.802 40.32C182.474 40.768 183.026 41.288 183.458 41.88C183.906 42.472 184.258 43.08 184.514 43.704C184.77 44.328 184.954 44.952 185.066 45.576C185.178 46.2 185.234 46.776 185.234 47.304C185.234 48.392 185.034 49.448 184.634 50.472C184.234 51.48 183.642 52.384 182.858 53.184C182.074 53.968 181.098 54.6 179.93 55.08C178.778 55.56 177.442 55.8 175.922 55.8H170.378V38.808ZM172.682 53.64H175.586C176.562 53.64 177.482 53.512 178.346 53.256C179.226 52.984 179.994 52.584 180.65 52.056C181.306 51.528 181.826 50.872 182.21 50.088C182.594 49.288 182.786 48.36 182.786 47.304C182.786 46.76 182.698 46.128 182.522 45.408C182.346 44.672 182.01 43.976 181.514 43.32C181.034 42.664 180.362 42.112 179.498 41.664C178.634 41.2 177.514 40.968 176.138 40.968H172.682V53.64ZM188.551 38.808H190.855V55.8H188.551V38.808ZM200.559 38.808H202.647L209.919 55.8H207.231L205.527 51.6H197.439L195.759 55.8H193.071L200.559 38.808ZM204.687 49.584L201.519 41.784H201.471L198.255 49.584H204.687ZM212.129 38.808H214.433V53.64H222.233V55.8H212.129V38.808Z" fill="black"/>
<path d="M123.025 99.5229C122.831 99.5229 122.633 99.4988 122.439 99.4452C121.244 99.125 120.538 97.8909 120.861 96.6984L135.805 41.4036C136.128 40.205 137.36 39.4875 138.556 39.8252C139.751 40.1454 140.456 41.3795 140.133 42.572L125.189 97.8668C124.92 98.8651 124.014 99.5229 123.025 99.5229Z" fill="black"/>
<path d="M94.6306 99.5229C94.4363 99.5229 94.2393 99.4988 94.045 99.4452C92.8492 99.125 92.1437 97.8909 92.4666 96.6984L107.411 41.4036C107.734 40.205 108.968 39.4875 110.161 39.8252C111.357 40.1454 112.062 41.3795 111.739 42.572L96.7945 97.8668C96.5253 98.8651 95.62 99.5229 94.6306 99.5229Z" fill="black"/>
<path d="M140.959 84.5782H85.6639C84.4265 84.5782 83.4222 83.574 83.4222 82.3366C83.4222 81.0991 84.4265 80.0949 85.6639 80.0949H140.959C142.196 80.0949 143.2 81.0991 143.2 82.3366C143.2 83.574 142.196 84.5782 140.959 84.5782Z" fill="black"/>
<path d="M146.936 59.1728H91.6419C90.4044 59.1728 89.4002 58.1685 89.4002 56.9311C89.4002 55.6937 90.4044 54.6895 91.6419 54.6895H146.936C148.174 54.6895 149.178 55.6937 149.178 56.9311C149.178 58.1685 148.174 59.1728 146.936 59.1728Z" fill="black"/>
</svg>
