<svg width="458" height="144" viewBox="0 0 458 144" fill="none" xmlns="http://www.w3.org/2000/svg">
<path d="M72 0.200012H386C425.6 0.200012 457.6 32.3 457.6 71.8C457.6 111.4 425.5 143.4 386 143.4H72C32.4 143.4 0.399994 111.3 0.399994 71.8C0.399994 32.2 32.5 0.200012 72 0.200012Z" fill="white"/>
<path d="M72 1.5H386C424.8 1.5 456.2 32.9 456.2 71.7C456.2 110.5 424.8 141.9 386 141.9H72C33.2 141.9 1.8 110.5 1.8 71.7C1.8 33 33.2 1.5 72 1.5Z" stroke="#010202" stroke-opacity="0.25" stroke-width="2.7543"/>
<path d="M117.7 70.3L83.6 38.4C83.3 39.2 83 40 83 41.1V99.8C83 100.9 83.3 101.7 83.6 102.5L117.7 70.3Z" fill="#010202"/>
<path d="M121.7 70.3L133.1 80.9L145.6 74.3C149.6 72.2 149.6 68.7 145.6 66.6L132.8 59.7L121.7 70.3Z" fill="#010202"/>
<path d="M119.7 68.4L130.2 58.3L90.1 37.1C88.4 36.3 86.7 36 85.6 36.6L119.7 68.4Z" fill="#010202"/>
<path d="M119.7 72.1L85.6 104.2C86.7 104.7 88.4 104.5 90.4 103.7L130.7 82.5L119.7 72.1Z" fill="#010202"/>
<path d="M173.9 40.6C171.6 40.6 169.6 41.4 168 43C166.4 44.6 165.6 46.6 165.6 49C165.6 51.4 166.4 53.4 168 55C169.6 56.6 171.6 57.4 173.9 57.4C177.1 57.4 179.8 55.7 181.2 53.1V48.5H173.8V50.8H178.6V52.6C177.5 54.3 176 55.1 173.9 55.1C172.2 55.1 170.8 54.5 169.7 53.4C168.6 52.2 168.1 50.8 168.1 49C168.1 47.3 168.6 45.8 169.7 44.7C170.7 43.6 172.1 43 173.8 43C175.8 43 177.3 43.9 178.5 45.6L180.3 44C178.9 41.8 176.7 40.6 173.9 40.6Z" fill="#010202"/>
<path d="M184.4 40.9V57.2H195V54.9H186.9V49.7H192.8V47.4H186.9V43.2H194.7V40.9H184.4Z" fill="#010202"/>
<path d="M196.3 40.9V43.2H201.6V57.2H204.1V43.2H209.4V40.9H196.3Z" fill="#010202"/>
<path d="M217.3 40.9V57.2H219.8V40.9H217.3Z" fill="#010202"/>
<path d="M222.2 40.9V43.2H227.5V57.2H230V43.2H235.3V40.9H222.2Z" fill="#010202"/>
<path d="M250.4 40.6C248.1 40.6 246.1 41.4 244.5 43C242.9 44.6 242.1 46.6 242.1 49C242.1 51.4 242.9 53.4 244.5 55C246.1 56.6 248 57.4 250.4 57.4C252.7 57.4 254.6 56.6 256.2 55C257.8 53.4 258.6 51.4 258.6 49C258.6 46.6 257.8 44.6 256.2 43C254.7 41.4 252.7 40.6 250.4 40.6ZM250.4 43C252 43 253.4 43.6 254.4 44.7C255.5 45.8 256 47.3 256 49C256 50.8 255.5 52.2 254.4 53.3C253.3 54.4 252 55 250.4 55C248.8 55 247.4 54.4 246.4 53.3C245.3 52.1 244.8 50.7 244.8 49C244.8 47.3 245.3 45.8 246.4 44.7C247.5 43.6 248.8 43 250.4 43Z" fill="#010202"/>
<path d="M272.1 51.9L262.6 40.6H261.7V57.2H264.2V46.2L273.8 57.5H274.7V40.9H272.2V51.9H272.1Z" fill="#010202"/>
<path d="M180.1 69.3C176 69.3 172.6 70.7 169.8 73.6C167 76.4 165.6 79.9 165.6 84.1C165.6 88.3 167 91.8 169.8 94.6C172.6 97.4 176 98.8 180.1 98.8C185.6 98.8 190.5 95.8 192.9 91.3V83.3H180V87.4H188.5V90.5C186.6 93.4 183.9 94.8 180.3 94.8C177.3 94.8 174.9 93.8 173 91.8C171.1 89.8 170.2 87.2 170.2 84.1C170.2 81.1 171.1 78.6 172.9 76.6C174.7 74.6 177.1 73.6 180 73.6C183.4 73.6 186.2 75.1 188.2 78.1L191.4 75.4C188.8 71.3 185 69.3 180.1 69.3Z" fill="#010202"/>
<path d="M205.5 76.6C202.5 76.6 199.9 77.7 197.8 79.8C195.7 81.9 194.7 84.6 194.7 87.7C194.7 90.8 195.7 93.5 197.8 95.6C199.9 97.7 202.4 98.8 205.5 98.8C208.5 98.8 211 97.7 213.2 95.6C215.3 93.4 216.4 90.8 216.4 87.7C216.4 84.6 215.3 81.9 213.2 79.8C211.1 77.7 208.5 76.6 205.5 76.6ZM205.6 80.8C207.4 80.8 208.9 81.5 210.1 82.8C211.3 84.1 211.9 85.7 211.9 87.7C211.9 89.6 211.3 91.3 210.1 92.6C208.9 93.9 207.4 94.5 205.6 94.5C203.8 94.5 202.3 93.9 201.1 92.6C199.9 91.3 199.3 89.6 199.3 87.7C199.3 85.7 199.9 84.1 201.1 82.8C202.2 81.4 203.7 80.8 205.6 80.8Z" fill="#010202"/>
<path d="M228.8 76.6C225.8 76.6 223.2 77.7 221.1 79.8C219 81.9 218 84.6 218 87.7C218 90.8 219 93.5 221.1 95.6C223.2 97.7 225.7 98.8 228.8 98.8C231.8 98.8 234.3 97.7 236.5 95.6C238.6 93.4 239.7 90.8 239.7 87.7C239.7 84.6 238.6 81.9 236.5 79.8C234.4 77.7 231.8 76.6 228.8 76.6ZM228.9 80.8C230.7 80.8 232.2 81.5 233.4 82.8C234.6 84.1 235.2 85.7 235.2 87.7C235.2 89.6 234.6 91.3 233.4 92.6C232.2 93.9 230.7 94.5 228.9 94.5C227.1 94.5 225.6 93.9 224.4 92.6C223.2 91.3 222.6 89.6 222.6 87.7C222.6 85.7 223.2 84.1 224.4 82.8C225.5 81.4 227 80.8 228.9 80.8Z" fill="#010202"/>
<path d="M258.7 80.1C257.1 77.8 254.7 76.6 251.5 76.6C248.6 76.6 246.3 77.6 244.4 79.6C242.5 81.6 241.6 84.1 241.6 87.3C241.6 90.4 242.6 93 244.4 95C246.3 97 248.6 98 251.5 98C254.5 98 256.7 97 258.4 95V96.5C258.4 100.5 256 102.6 252.3 102.6C249.9 102.6 247.5 101.6 245.1 99.6L242.7 102.8C245.4 105.5 248.7 106.8 252.5 106.8C258.7 106.8 262.7 103 262.7 96.3V77.3H258.7V80.1ZM252.2 93.9C250.4 93.9 249 93.3 247.7 92.1C246.5 90.8 245.9 89.2 245.9 87.3C245.9 85.4 246.5 83.8 247.7 82.5C248.9 81.3 250.4 80.7 252.2 80.7C255.6 80.7 258.4 82.9 258.4 87.2C258.4 89.4 257.8 91 256.6 92.2C255.3 93.3 253.9 93.9 252.2 93.9Z" fill="#010202"/>
<path d="M266.9 65.9V98.3H271.3V65.9H266.9Z" fill="#010202"/>
<path d="M294.3 86.3C294.3 83.5 293.4 81.2 291.6 79.3C289.8 77.4 287.6 76.5 284.9 76.5C281.9 76.5 279.4 77.6 277.4 79.7C275.4 81.8 274.4 84.5 274.4 87.6C274.4 90.8 275.4 93.4 277.5 95.5C279.6 97.6 282.2 98.7 285.4 98.7C288.5 98.7 291.2 97.6 293.6 95.3L291.5 92.2C289.7 93.9 287.7 94.7 285.5 94.7C282 94.7 279.4 92.6 278.8 89.1H294C294.2 88.2 294.3 87.2 294.3 86.3ZM284.7 80.5C287.7 80.5 289.9 82.5 289.9 85.7H278.8C279.5 82.5 281.8 80.5 284.7 80.5Z" fill="#010202"/>
<path d="M307.1 69.8V98.3H311.5V87.3H317.1C319.9 87.3 322.1 86.5 323.9 84.9C325.6 83.3 326.5 81.1 326.5 78.5C326.5 75.9 325.6 73.8 323.9 72.2C322.2 70.6 319.9 69.8 317.1 69.8H307.1ZM317.1 73.8C320.2 73.8 322 75.7 322 78.5C322 81.3 320.2 83.2 317.1 83.2H311.6V73.8H317.1Z" fill="#010202"/>
<path d="M329 65.9V98.3H333.4V65.9H329Z" fill="#010202"/>
<path d="M345.5 76.6C341.8 76.6 338.9 78.1 336.9 81.1L339.4 83.8C341.1 81.7 343 80.6 345.1 80.6C347.9 80.6 349.5 82.2 349.5 85.1V86.5H343.7C339.1 86.5 336.2 88.9 336.2 92.6C336.2 96.3 339 98.7 343.3 98.7C346.1 98.7 348.3 97.7 349.8 95.8V98.2H353.9V85.4C353.9 79.8 350.6 76.6 345.5 76.6ZM344.2 95.3C342.1 95.3 340.6 94.3 340.6 92.5C340.6 90.8 341.8 89.9 344.2 89.9H349.4V90.3C349.5 93.2 347.1 95.3 344.2 95.3Z" fill="#010202"/>
<path d="M366.1 92.6L360.2 77.1H355.5L363.7 97.4L362.9 99.4C361.9 101.8 360.5 102.5 358.4 102.5C358.1 102.5 357.3 102.5 356 102.3V106.1C357.1 106.4 358.3 106.5 359.4 106.5C362.9 106.5 365.2 104.7 366.9 100.7L376.9 77.1H372.2L366.1 92.6Z" fill="#010202"/>
</svg>
